<svg width="512" height="512" viewBox="0 0 512 512" fill="none" xmlns="http://www.w3.org/2000/svg">
<g clip-path="url(#clip0_1_2)">
<g filter="url(#filter0_d_1_2)">
<path d="M143.338 135.5C143.338 101 123.838 98 106.338 98L105.338 90.5L216.838 72V222C233.338 201.5 257.838 187 287.838 187C337.838 187 381.838 227 381.838 313.5C381.838 401 329.838 446.5 269.838 446.5C241.838 446.5 215.338 436.5 190.838 414L153.838 442H143.338V135.5ZM216.838 357C217.338 401 229.338 428.5 257.338 428.5C284.838 428.5 303.838 401.5 303.838 337C303.838 269.5 290.838 220 253.338 220C238.838 220 226.338 227.5 216.838 239.5V357Z" fill="black"/>
</g>
</g>
<defs>
<filter id="filter0_d_1_2" x="101.338" y="72" width="284.5" height="382.5" filterUnits="userSpaceOnUse" color-interpolation-filters="sRGB">
<feFlood flood-opacity="0" result="BackgroundImageFix"/>
<feColorMatrix in="SourceAlpha" type="matrix" values="0 0 0 0 0 0 0 0 0 0 0 0 0 0 0 0 0 0 127 0" result="hardAlpha"/>
<feOffset dy="4"/>
<feGaussianBlur stdDeviation="2"/>
<feComposite in2="hardAlpha" operator="out"/>
<feColorMatrix type="matrix" values="0 0 0 0 0 0 0 0 0 0 0 0 0 0 0 0 0 0 0.25 0"/>
<feBlend mode="normal" in2="BackgroundImageFix" result="effect1_dropShadow_1_2"/>
<feBlend mode="normal" in="SourceGraphic" in2="effect1_dropShadow_1_2" result="shape"/>
</filter>
<clipPath id="clip0_1_2">
<rect width="512" height="512" fill="white"/>
</clipPath>
</defs>
</svg>
